<?xml version="1.0" encoding="UTF-8"?>
<svg id="Layer_2" data-name="Layer 2" xmlns="http://www.w3.org/2000/svg" viewBox="0 0 699.74 166.02">
  <defs>
    <style>
      .cls-1 {
        fill: #fff;
      }

      .cls-2 {
        fill: #ffc000;
      }
    </style>
  </defs>
  <g id="Layer_2-2" data-name="Layer 2">
    <g id="Leander_ISD_Futura_White" data-name="Leander ISD Futura White">
      <g>
        <path class="cls-1" d="M17.3,49.51v52h28.8v14.7H0V49.51h17.3Z"/>
        <path class="cls-1" d="M99.61,64.21h-28.6v11.1h27.5v14.7h-27.5v11.5h28.6v14.7h-45.9V49.51h45.9v14.7Z"/>
        <path class="cls-1" d="M152.33,105.01h-24.2l-4.5,11.2h-18.3l25.6-66.7h18.9l25.1,66.7h-18.5l-4.1-11.2ZM147.73,91.81l-7.5-21.6-7.3,21.6h14.8Z"/>
        <path class="cls-1" d="M180.03,116.21V49.51h18.3l26.9,37.8v-37.8h17.3v66.7h-17.3l-27.9-37.8v37.8h-17.3Z"/>
        <path class="cls-1" d="M257.17,116.21V49.51h22.7c6.7,0,17.9.9,26.5,9.2,7.8,7.5,9.3,17.1,9.3,24.3,0,8.8-2.2,16.6-8.7,23.1-5.3,5.3-14.2,10.1-25.6,10.1h-24.2ZM274.47,101.51h3.5c4.2,0,10.1-.4,14.6-4.8,2.2-2.1,5.1-6.3,5.1-13.7,0-6.2-1.9-11.5-5.2-14.6-4.1-3.8-9.5-4.2-13.8-4.2h-4.2v37.3Z"/>
        <path class="cls-1" d="M370.77,64.21h-28.6v11.1h27.5v14.7h-27.5v11.5h28.6v14.7h-45.9V49.51h45.9v14.7Z"/>
        <path class="cls-1" d="M408.67,49.51c5,0,11.4.8,16.3,5.9,3.8,3.9,5.7,9.7,5.7,15,0,3.4-.71,6.55-1.99,9.22l-12.46,3.4,9.15,1.28c-2.6,2.5-6.1,4-9.2,4.6l20.9,27.3h-21.5l-16.6-25.6v25.6h-17.3V49.51h27ZM398.97,79.41h3.3c2.6,0,6.3-.7,8.4-2.7,1.3-1.3,2.2-3.5,2.2-5.6s-.8-4.2-2.3-5.6c-1.6-1.6-4.5-2.6-8.3-2.6h-3.3v16.5Z"/>
      </g>
      <path class="cls-1" d="M574.34,49.51v66.7h-17.3v-30.29l10.65-3.21-10.65-.28v-32.93h17.3Z"/>
      <path class="cls-1" d="M631.19,53.41c-6.44-3.07-14.71-5.4-22.25-5.4-15.58,0-25.06,8.66-25.06,21.39,0,21.74,32.2,16.42,32.2,27.4,0,4.18-3.43,6.21-9.36,6.21s-13.72-2.87-17.77-6.92l-7.99,14.12c6.48,4.72,15.45,7.5,24.99,7.5,16.44,0,28.15-9.07,28.15-22.45,0-24.72-31.89-16.48-31.89-27.19,0-3.42,3.69-5.66,8.85-5.66,4.51,0,9.25,1.64,12.67,4.5l7.45-13.5Z"/>
      <path class="cls-1" d="M641.24,116.21V49.51h22.7c6.7,0,17.9.9,26.5,9.2,7.8,7.5,9.3,17.1,9.3,24.3,0,8.8-2.2,16.6-8.7,23.1-5.3,5.3-14.2,10.1-25.6,10.1h-24.2ZM658.54,101.51h3.5c4.2,0,10.1-.4,14.6-4.8,2.2-2.1,5.1-6.3,5.1-13.7,0-6.2-1.9-11.5-5.2-14.6-4.1-3.8-9.5-4.2-13.8-4.2h-4.2v37.3Z"/>
    </g>
  </g>
  <g id="Layer_6" data-name="Layer 6">
    <path class="cls-2" d="M438.91,91.09c1.5,9.84,5.71,18.8,11.83,26.08l-10.92,17.41,38.87-23.97,2.83,12.36c-4.11-1.01-7.97-2.64-11.5-4.78l-11.1,6.84c7.24,5.6,15.97,9.37,25.5,10.62l6.96,30.36h0s11.31-56.26,11.31-56.26l11.84,7.3c-3.77,2.57-7.99,4.52-12.51,5.73l-2.56,12.72c9.79-1.49,18.7-5.66,25.96-11.73l17.54,10.81h0s-24.32-38.79-24.32-38.79l12.72-2.92c-1.04,4.2-2.72,8.16-4.93,11.74l6.89,10.99c5.66-7.27,9.47-16.05,10.72-25.63l30.36-6.96-56.64-11.38,7.52-11.99c2.64,3.83,4.65,8.12,5.88,12.74l12.72,2.56c-1.5-9.84-5.71-18.8-11.83-26.08l10.92-17.41-38.79,24.32-2.92-12.72c4.21,1.04,8.16,2.72,11.74,4.93l10.99-6.89c-7.27-5.66-16.05-9.47-25.63-10.72L491.4,0h0s-11.38,56.63-11.38,56.63l-11.99-7.52c3.83-2.64,8.12-4.65,12.74-5.88l2.56-12.72c-9.84,1.5-18.8,5.71-26.08,11.83l-17.41-10.92,24.32,38.79-12.72,2.92c1.04-4.2,2.72-8.16,4.93-11.74l-6.89-10.99c-5.66,7.27-9.47,16.05-10.72,25.63l-30.36,6.96,56.64,11.38-7.52,11.99c-2.64-3.83-4.65-8.12-5.88-12.74l-12.72-2.56ZM452.05,118.68h0l.08-.13,14.89-23.75,10.48,2.11,13.89-13.89h-74.47s60.58-13.89,60.58-13.89l-31.65-31.65,33.75,21.16-2.11,10.48,13.89,13.89V8.54s13.89,60.58,13.89,60.58l31.65-31.65h0s-21.16,33.75-21.16,33.75l-10.48-2.11-13.89,13.89h74.47s-60.58,13.89-60.58,13.89l31.72,31.77-33.9-20.9,2.18-10.86-13.89-13.89v74.47s0,0,0,0l-13.89-60.58-31.65,31.65,6.19-9.87Z"/>
  </g>
</svg>