<?xml version="1.0" encoding="UTF-8"?>
<svg id="Layer_2" data-name="Layer 2" xmlns="http://www.w3.org/2000/svg" viewBox="0 0 697.16 166.02">
  <defs>
    <style>
      .cls-1 {
        fill: #fff;
      }
    </style>
  </defs>
  <g id="Layer_2-2" data-name="Layer 2">
    <g>
      <g id="LEANDER">
        <path class="cls-1" d="M44.61,100.27v14.04H0v-62.58h15.02v48.55h29.59Z"/>
        <path class="cls-1" d="M99.42,100.27v14.04h-46.04v-62.58h45.51v14.04h-30.49v10.28h23.87v13.14h-23.87v11.09h31.02Z"/>
        <path class="cls-1" d="M150.21,104.47h-24.77l-3.58,9.83h-16.18l25.03-62.58h14.22l25.03,62.58h-16.18l-3.58-9.83ZM145.38,91.32l-4.47-12.16c-1.34-3.58-2.95-9.21-3.04-9.21h-.09c-.09,0-1.7,5.63-3.04,9.21l-4.47,12.16h15.11Z"/>
        <path class="cls-1" d="M231.3,51.72v62.58h-14.13l-12.78-17.43c-5.72-7.87-14.13-19.76-14.22-19.76h-.09c-.09,0,.09,9.66.09,23.33v13.86h-15.02v-62.58h14.13l13.32,17.88c4.02,5.36,13.59,18.86,13.68,18.86h.09c.09,0-.09-11.09-.09-22.44v-14.3h15.02Z"/>
        <path class="cls-1" d="M272.61,51.72c17.88,0,32.36,12.78,32.36,31.56s-14.48,31.02-32.36,31.02h-27.36v-62.58h27.36ZM272.61,100.27c8.94,0,16.72-6.26,16.72-16.99s-7.78-17.52-16.72-17.52h-12.34v34.51h12.34Z"/>
        <path class="cls-1" d="M360.42,100.27v14.04h-46.04v-62.58h45.51v14.04h-30.49v10.28h23.87v13.14h-23.87v11.09h31.02Z"/>
        <path class="cls-1" d="M410.93,91.24c3.34-1.57,5.98-3.75,7.87-6.46l-7.7-1.77h8.79c1.51-2.82,2.3-6.11,2.3-9.83,0-12.87-9.48-21.46-25.21-21.46h-23.33v62.58h15.02v-20.38h7.69l11.62,20.38h16.81l-13.86-23.07ZM399.04,80.6h-10.37v-14.84h10.37c5.36,0,7.51,4.02,7.51,7.42s-2.15,7.42-7.51,7.42Z"/>
      </g>
      <g id="ISD">
        <path class="cls-1" d="M613.21,71.57c-1.52-5.54-6.35-8.14-10.82-8.14s-7.06,2.23-7.06,4.74c0,4.11,6.26,5.63,13.86,8.4,9.3,3.4,19.04,8.67,19.04,19.4,0,11.44-9.83,19.58-24.41,19.58-13.05,0-22.35-7.24-26.46-18.95l14.39-3.84c1.61,4.74,6.08,9.48,12.7,9.48,5.36,0,7.87-2.5,7.87-5.54,0-5.01-7.33-6.26-16.27-9.66-7.51-2.86-16.18-6.97-16.18-17.97,0-9.74,9.83-18.6,23.42-18.6,11.98,0,21.46,7.33,24.41,17.17l-14.48,3.93Z"/>
        <path class="cls-1" d="M664.8,51.72c17.88,0,32.36,12.78,32.36,31.56s-14.48,31.02-32.36,31.02h-27.36v-62.58h27.36ZM664.8,100.27c8.94,0,16.72-6.26,16.72-16.99s-7.78-17.52-16.72-17.52h-12.34v34.51h12.34Z"/>
        <polygon class="cls-1" points="553.57 51.72 553.57 81.52 560.05 83.01 553.57 83.01 553.57 114.3 568.59 114.3 568.59 51.72 553.57 51.72"/>
      </g>
      <g id="Black_1-Color_Compass_Rose" data-name="Black 1-Color Compass Rose">
        <path id="Outer_Ring" data-name="Outer Ring" class="cls-1" d="M518.04,125.04c-7.75,5.99-17.2,9.89-27.51,10.85l2.85-12.45c4.88-.94,9.45-2.74,13.56-5.24l11.1,6.84ZM445.15,90.82l-12.45-2.85c.96,10.37,4.9,19.87,10.95,27.64l6.89-10.99c-2.58-4.17-4.43-8.82-5.39-13.8ZM463.97,47.97c4.17-2.58,8.82-4.43,13.8-5.39l2.85-12.45c-10.37.96-19.87,4.9-27.64,10.95l10.99,6.89ZM526.01,75.2l12.45,2.85c-.96-10.37-4.9-19.87-10.95-27.64l-6.89,10.99c2.58,4.17,4.43,8.82,5.39,13.8ZM496.22,43.24c5.3,1.41,10.17,3.85,14.4,7.09l10.63-6.66c-7.54-6.84-17.05-11.54-27.59-13.14l2.56,12.72ZM525.35,93.65c-1.41,5.29-3.85,10.17-7.09,14.4l6.66,10.63c6.84-7.54,11.54-17.05,13.14-27.59l-12.72,2.56ZM474.94,122.78c-5.21-1.39-10.01-3.77-14.19-6.93l-10.72,6.61c7.52,6.78,16.99,11.44,27.47,13.04l-2.56-12.72ZM445.81,72.37c1.41-5.29,3.85-10.17,7.09-14.4l-6.66-10.63c-6.84,7.54-11.54,17.05-13.14,27.59l12.72-2.56Z"/>
        <path id="Back_Points" data-name="Back Points" class="cls-1" d="M473.74,56.35l-2.76,12.06-30.94-30.94h0s21.28,33.93,21.28,33.93l-1.97.45-25.34-40.42h0s0,0,0,0l39.73,24.91ZM531.12,37.47l-30.94,30.94,12.1,2.69,24.87-39.67-40.36,25.31.44,1.98,33.89-21.24ZM509.77,94.5l21.35,34.05-30.86-30.86-2.83,12.4,39.73,24.49-25.42-40.54-1.97.45ZM474.1,107.62l-34.13,21.05,30.93-30.97-11.99-2.82-24.9,39.71h0s0,0,0,0h0s40.49-24.97,40.49-24.97l-.4-2Z"/>
        <path id="Front_Points" data-name="Front Points" class="cls-1" d="M501.06,67.53l-1.59,1.59L485.58,0h0s0,0,0,0h0s-15.48,67.53-15.48,67.53h0l1.59,1.59-69.12,13.89,67.53,15.48h0l1.59-1.59,13.89,69.12h0s0,0,0,0l15.48-67.53-1.59-1.59,69.12-13.89-67.53-15.48ZM485.58,157.48h0v-74.47l-13.89,13.89-60.58-13.89h74.47l-13.89-13.89,13.89-60.58v74.47l13.89-13.89h0s60.58,13.89,60.58,13.89h-74.47l13.89,13.89-13.89,60.58Z"/>
      </g>
    </g>
  </g>
</svg>