<?xml version="1.0" encoding="UTF-8"?>
<svg id="Layer_2" data-name="Layer 2" xmlns="http://www.w3.org/2000/svg" viewBox="0 0 435 435">
  <defs>
    <style>
      .cls-1 {
        fill: #ffc000;
      }
    </style>
  </defs>
  <g id="Layer_4" data-name="Layer 4">
    <path id="Outer_Ring" data-name="Outer Ring" class="cls-1" d="M302.56,327.63c-20.31,15.71-45.07,25.92-72.08,28.42l7.48-32.62c12.79-2.46,24.77-7.18,35.52-13.73l29.08,17.93ZM111.57,237.95l-32.62-7.48c2.51,27.16,12.83,52.06,28.69,72.43l18.05-28.78c-6.75-10.92-11.62-23.12-14.12-36.17ZM160.88,125.69c10.92-6.75,23.12-11.62,36.17-14.12l7.48-32.62c-27.16,2.51-52.06,12.83-72.43,28.69l28.78,18.05ZM323.43,197.05l32.62,7.48c-2.51-27.16-12.83-52.06-28.69-72.43l-18.05,28.78c6.75,10.92,11.62,23.12,14.12,36.17ZM245.37,113.29c13.87,3.7,26.65,10.08,37.73,18.58l27.85-17.46c-19.76-17.92-44.68-30.23-72.28-34.44l6.7,33.32ZM321.72,245.37c-3.7,13.87-10.08,26.65-18.58,37.73l17.46,27.85c17.92-19.76,30.23-44.68,34.44-72.28l-33.32,6.7ZM189.63,321.71c-13.65-3.64-26.23-9.87-37.18-18.16l-28.09,17.32c19.71,17.77,44.52,29.97,71.97,34.16l-6.7-33.32ZM113.29,189.63c3.7-13.87,10.08-26.65,18.58-37.73l-17.46-27.85c-17.92,19.75-30.23,44.68-34.44,72.28l33.32-6.7Z"/>
    <path id="Back_Points" data-name="Back Points" class="cls-1" d="M186.48,147.64l-7.23,31.6-81.06-81.06h0s55.75,88.91,55.75,88.91l-5.16,1.18-66.41-105.91h0s0,0,0,0l104.11,65.27ZM336.81,98.19l-81.06,81.06,31.72,7.06,65.16-103.93-105.76,66.31,1.15,5.18,88.79-55.66ZM280.88,247.6l55.93,89.21-80.85-80.85-7.43,32.49,104.1,64.18-66.59-106.22-5.16,1.19ZM187.43,281.99l-89.44,55.14,81.03-81.15-31.42-7.39-65.23,104.05h0s0,0,0,0h0s106.1-65.41,106.1-65.41l-1.04-5.23Z"/>
    <path id="Front_Points" data-name="Front Points" class="cls-1" d="M258.07,176.93l-4.17,4.17L217.5,0h0s0,0,0,0h0s-40.57,176.93-40.57,176.93h0l4.17,4.17L0,217.5l176.93,40.57h0l4.17-4.17,36.4,181.11h0s0,0,0,0l40.57-176.93-4.17-4.17,181.1-36.4-176.93-40.57ZM217.5,412.63h0v-195.13l-36.4,36.4L22.37,217.5h195.13l-36.4-36.4L217.5,22.37v195.13l36.4-36.4h0s158.73,36.4,158.73,36.4h-195.13l36.4,36.4-36.4,158.73Z"/>
  </g>
</svg>